<svg width="36" height="36" viewBox="0 0 36 36" fill="none" xmlns="http://www.w3.org/2000/svg">
<path fill-rule="evenodd" clip-rule="evenodd" d="M26.9079 4.84252C25.4043 3.12941 22.6879 2.39551 19.2124 2.39551H9.1236C8.41342 2.39551 7.80872 2.91222 7.69796 3.61373L3.49712 30.2502C3.41413 30.7758 3.82046 31.2509 4.35243 31.2509H10.5806L10.1508 33.9766C10.0784 34.4364 10.4335 34.8523 10.899 34.8523H16.1486C16.7702 34.8523 17.2991 34.4001 17.396 33.7865L17.4476 33.5197L18.4365 27.2491L18.5003 26.9027C18.5972 26.2888 19.1261 25.8369 19.7474 25.8369H20.5326C25.6185 25.8369 29.6008 23.7707 30.7643 17.7956C31.2506 15.299 30.9993 13.215 29.7136 11.7498C29.3244 11.3068 28.8407 10.9402 28.2764 10.6414C28.6725 8.11667 28.2737 6.3986 26.9079 4.84252Z" fill="white" fill-opacity="0.5"/>
<path fill-rule="evenodd" clip-rule="evenodd" d="M28.2764 10.6421C28.6724 8.1172 28.2737 6.39898 26.9079 4.84275C25.4043 3.12948 22.6879 2.39551 19.2124 2.39551H9.12359C8.41342 2.39551 7.80872 2.91227 7.69796 3.61384L3.49712 30.2528C3.41413 30.7785 3.82046 31.2536 4.35243 31.2536H10.5806L12.1451 21.333L12.0965 21.6442C12.2073 20.9426 12.807 20.4255 13.5172 20.4255H16.4776C22.2912 20.4255 26.8431 18.0636 28.1732 11.233C28.2126 11.031 28.2463 10.8349 28.2764 10.6421Z" fill="white" fill-opacity="0.66"/>
<path fill-rule="evenodd" clip-rule="evenodd" d="M13.8257 10.6759C13.8924 10.2537 14.1632 9.90817 14.5279 9.73327C14.6939 9.65392 14.879 9.60962 15.0731 9.60962H22.9812C23.9181 9.60962 24.7916 9.67112 25.5901 9.79973C25.8185 9.83642 26.0404 9.87874 26.2563 9.92668C26.4718 9.97429 26.6815 10.0279 26.8841 10.0874C26.9856 10.1168 27.0851 10.1479 27.1833 10.1806C27.5755 10.3105 27.9405 10.4643 28.2764 10.6421C28.6724 8.1172 28.2737 6.39898 26.9079 4.84275C25.4043 3.12948 22.6879 2.39551 19.2124 2.39551H9.12359C8.41342 2.39551 7.80872 2.91227 7.69796 3.61384L3.49712 30.2528C3.41413 30.7785 3.82046 31.2536 4.35243 31.2536H10.5806L13.8257 10.6759Z" fill="white"/>
</svg>