<svg width="194" height="47" viewBox="0 0 194 47" fill="none" xmlns="http://www.w3.org/2000/svg">
<path d="M149.181 10.5112H138.529C137.803 10.5112 137.18 11.0419 137.067 11.7605L132.76 39.0736C132.675 39.6118 133.092 40.0985 133.638 40.0985H139.102C139.61 40.0985 140.045 39.7286 140.124 39.2252L141.347 31.4823C141.46 30.7637 142.08 30.233 142.809 30.233H146.179C153.196 30.233 157.244 26.8384 158.302 20.1083C158.778 17.1655 158.323 14.8519 156.944 13.2327C155.431 11.4512 152.744 10.5112 149.181 10.5112ZM150.411 20.4858C149.829 24.3095 146.909 24.3095 144.084 24.3095H142.475L143.603 17.1716C143.672 16.7395 144.043 16.4211 144.48 16.4211H145.215C147.139 16.4211 148.955 16.4211 149.891 17.5173C150.452 18.1722 150.623 19.1426 150.411 20.4858Z" fill="#0070BA"/>
<path d="M73.2115 10.5117H62.5607C61.8314 10.5117 61.2113 11.0424 61.0976 11.761L56.7903 39.0741C56.7054 39.6123 57.1223 40.099 57.6681 40.099H62.7532C63.481 40.099 64.1011 39.5698 64.2148 38.8512L65.3777 31.4828C65.4914 30.7642 66.1115 30.2335 66.8392 30.2335H70.2096C77.2247 30.2335 81.2743 26.8389 82.334 20.1088C82.8101 17.166 82.3522 14.8524 80.9756 13.2332C79.4595 11.4517 76.7744 10.5117 73.2115 10.5117ZM74.4411 20.4863C73.8589 24.31 70.9388 24.31 68.1143 24.31H66.5072L67.6337 17.1721C67.7019 16.74 68.0749 16.4216 68.5115 16.4216H69.2483C71.1708 16.4216 72.9871 16.4216 73.9226 17.5178C74.482 18.1727 74.6518 19.143 74.4411 20.4863Z" fill="#005EA6"/>
<path d="M105.047 20.3649H99.9484C99.5102 20.3649 99.1388 20.6818 99.0706 21.1139L98.8477 22.539L98.4899 22.022C97.3861 20.418 94.9239 19.8843 92.4663 19.8843C86.8324 19.8843 82.0187 24.1537 81.0817 30.1424C80.5935 33.1307 81.2864 35.9856 82.9799 37.9793C84.5354 39.8108 86.7581 40.5719 89.4037 40.5719C93.9445 40.5719 96.4643 37.6548 96.4643 37.6548L96.2369 39.0724C96.152 39.6106 96.5674 40.0988 97.1132 40.0988H101.707C102.435 40.0988 103.055 39.5697 103.17 38.8526L105.925 21.3913C106.01 20.8501 105.593 20.3649 105.047 20.3649ZM97.9395 30.291C97.4468 33.2065 95.1332 35.1608 92.1828 35.1608C90.703 35.1608 89.5189 34.6847 88.7579 33.7857C88.0028 32.8912 87.7193 31.6191 87.9588 30.2031C88.4182 27.3148 90.7698 25.2953 93.6762 25.2953C95.1241 25.2953 96.2991 25.7744 97.0768 26.6856C97.8561 27.6014 98.1639 28.8825 97.9395 30.291Z" fill="#005EA6"/>
<path d="M181.017 20.3649H175.919C175.482 20.3649 175.11 20.6818 175.042 21.1139L174.818 22.539L174.462 22.022C173.356 20.418 170.896 19.8843 168.438 19.8843C162.801 19.8843 157.987 24.1537 157.052 30.1424C156.565 33.1307 157.256 35.9856 158.95 37.9793C160.506 39.8108 162.728 40.5719 165.374 40.5719C169.915 40.5719 172.434 37.6548 172.434 37.6548L172.207 39.0724C172.121 39.6106 172.539 40.0988 173.083 40.0988H177.677C178.403 40.0988 179.025 39.5697 179.139 38.8526L181.895 21.3913C181.98 20.8501 181.563 20.3649 181.017 20.3649ZM173.91 30.291C173.417 33.2065 171.103 35.1608 168.153 35.1608C166.673 35.1608 165.489 34.6847 164.726 33.7857C163.974 32.8912 163.688 31.6191 163.929 30.2031C164.39 27.3148 166.738 25.2953 169.645 25.2953C171.094 25.2953 172.269 25.7744 173.045 26.6856C173.826 27.6014 174.134 28.8825 173.91 30.291Z" fill="#0070BA"/>
<path d="M132.213 20.3647H127.085C126.596 20.3647 126.136 20.6073 125.86 21.0121L118.789 31.4279L115.79 21.42C115.604 20.7923 115.026 20.3647 114.373 20.3647H109.333C108.725 20.3647 108.298 20.9636 108.492 21.5382L114.138 38.108L108.828 45.5992C108.413 46.1875 108.834 47.0001 109.554 47.0001H114.677C115.161 47.0001 115.616 46.7621 115.893 46.3633L132.944 21.7581C133.35 21.1683 132.929 20.3647 132.213 20.3647Z" fill="#005EA6"/>
<path d="M187.029 11.2602L182.658 39.0721C182.571 39.6103 182.988 40.097 183.534 40.097H187.931C188.659 40.097 189.279 39.5679 189.393 38.8508L193.703 11.5362C193.788 10.998 193.371 10.5098 192.827 10.5098H187.905C187.47 10.5113 187.097 10.8297 187.029 11.2602Z" fill="#0070BA"/>
<path d="M35.8947 11.941C36.4678 8.28413 35.8917 5.79616 33.9131 3.54319C31.736 1.06281 27.8031 0 22.7711 0H8.16321C7.13527 0 6.25895 0.748968 6.09824 1.76477L0.0155306 40.3351C-0.104244 41.0977 0.484014 41.7845 1.25421 41.7845H10.2721L9.64901 45.7325C9.5444 46.3981 10.0599 47 10.7346 47H18.3364C19.2355 47 20.0011 46.345 20.1421 45.4566L20.2164 45.07L21.6477 35.9899L21.7401 35.488C21.8811 34.5996 22.6468 33.9431 23.5459 33.9431H24.683C32.0468 33.9431 37.8126 30.9533 39.497 22.2992C40.202 18.6848 39.8382 15.6662 37.9764 13.5451C37.4124 12.9053 36.7119 12.3746 35.8947 11.941Z" fill="#0070BA"/>
<path d="M35.8947 11.941C36.4678 8.28413 35.8917 5.79616 33.9131 3.54319C31.736 1.06281 27.8031 0 22.7711 0H8.16321C7.13527 0 6.25895 0.748968 6.09824 1.76477L0.0155306 40.3351C-0.104244 41.0977 0.484014 41.7845 1.25421 41.7845H10.2721L12.5372 27.4192L12.4675 27.871C12.6282 26.8537 13.4954 26.1062 14.5249 26.1062H18.811C27.2285 26.1062 33.8191 22.6858 35.7461 12.7961C35.8022 12.5035 35.8508 12.2215 35.8947 11.941Z" fill="#1546A0"/>
<path d="M14.9721 11.9895C15.0677 11.3785 15.4603 10.8782 15.988 10.625C16.2275 10.5098 16.4959 10.4461 16.7779 10.4461H28.2292C29.5861 10.4461 30.8506 10.5356 32.0074 10.7221C32.3379 10.7751 32.6593 10.8358 32.9716 10.9055C33.284 10.9737 33.5872 11.0511 33.8813 11.1375C34.0284 11.1799 34.1724 11.2254 34.3149 11.2724C34.8835 11.4619 35.4126 11.6833 35.8978 11.941C36.4709 8.28413 35.8947 5.79616 33.9162 3.54319C31.736 1.06281 27.8031 0 22.7711 0H8.16321C7.13527 0 6.25895 0.748968 6.09824 1.76477L0.0155306 40.3351C-0.104244 41.0977 0.484014 41.7845 1.25421 41.7845H10.2721L12.5372 27.4192L14.9721 11.9895Z" fill="#005EA6"/>
</svg>