<svg width="21" height="18" viewBox="0 0 21 18" fill="none" xmlns="http://www.w3.org/2000/svg">
<path d="M0.543197 13.9697C0.603799 13.8737 0.700762 13.8677 0.834087 13.9517C3.83482 15.6831 7.25085 16.5842 10.7243 16.5604C13.1313 16.5546 15.5165 16.1094 17.7602 15.2471C17.8208 15.2231 17.9087 15.1871 18.0239 15.1391C18.139 15.0911 18.2208 15.0551 18.2693 15.0312C18.3411 14.9924 18.4251 14.982 18.5044 15.002C18.5836 15.022 18.6523 15.071 18.6965 15.1391C18.7996 15.283 18.7662 15.415 18.5965 15.5349C18.3784 15.6908 18.0996 15.8708 17.7602 16.0747C16.6689 16.7064 15.4941 17.1848 14.2696 17.496C13.0424 17.8242 11.7774 17.9935 10.5062 17.9998C8.67196 18.0101 6.85228 17.6775 5.14289 17.0192C3.47747 16.3773 1.94361 15.4416 0.61592 14.2575C0.585437 14.2374 0.559846 14.2108 0.540985 14.1797C0.522124 14.1486 0.510461 14.1137 0.506836 14.0776C0.507744 14.0388 0.520413 14.0012 0.543197 13.9697ZM6.01556 8.84206C5.99376 8.08803 6.20981 7.346 6.6337 6.71905C7.05587 6.12329 7.64302 5.66095 8.3245 5.38768C9.09937 5.08157 9.91292 4.88181 10.7425 4.79395C11.0698 4.75797 11.6031 4.70999 12.3424 4.65002V4.34416C12.3884 3.81551 12.3009 3.28383 12.0879 2.79689C11.9503 2.61384 11.7681 2.46831 11.5582 2.37391C11.3484 2.27952 11.1178 2.23934 10.888 2.25714H10.7425C10.368 2.28378 10.0087 2.41476 9.70623 2.63497C9.41235 2.85548 9.21154 3.176 9.14263 3.53454C9.13544 3.63317 9.09612 3.72683 9.03055 3.80145C8.96498 3.87607 8.87672 3.92762 8.77901 3.94835L6.68824 3.69647C6.4822 3.64849 6.37917 3.54054 6.37917 3.37262C6.38009 3.33007 6.38619 3.28778 6.39735 3.24668C6.46775 2.76754 6.6393 2.30845 6.90086 1.89927C7.16242 1.49009 7.50811 1.14001 7.91543 0.871792C8.76451 0.342602 9.73976 0.0446935 10.7425 0.00819678H11.197C12.3734 -0.0617717 13.532 0.31825 14.4332 1.0697C14.5549 1.19019 14.6673 1.31949 14.7695 1.45652C14.8591 1.5742 14.9411 1.69739 15.015 1.82535C15.09 1.97349 15.145 2.13077 15.1786 2.29313C15.2271 2.49703 15.2634 2.63796 15.2877 2.71593C15.3226 2.88166 15.3408 3.0504 15.3422 3.21969C15.3543 3.47757 15.3604 3.6305 15.3604 3.67848V8.03244C15.3569 8.32287 15.403 8.61179 15.4967 8.88703C15.5581 9.08413 15.6468 9.27184 15.7604 9.44477C15.8452 9.55872 15.9846 9.74163 16.1785 9.99352C16.2424 10.0769 16.2803 10.177 16.2876 10.2814C16.2859 10.3319 16.2717 10.3812 16.2464 10.4251C16.221 10.469 16.1853 10.5061 16.1422 10.5333C15.1362 11.3969 14.5907 11.8646 14.5059 11.9366C14.4299 11.9901 14.3404 12.0217 14.2474 12.0281C14.1544 12.0344 14.0614 12.0152 13.9787 11.9726C13.809 11.8287 13.6605 11.6907 13.5332 11.5588C13.406 11.4268 13.3151 11.3309 13.2605 11.2709C13.1663 11.1588 13.0783 11.0417 12.9969 10.9201C12.8757 10.7462 12.7909 10.6292 12.7424 10.5692C12.2164 11.1993 11.5241 11.6727 10.7425 11.9366C10.2445 12.0672 9.73042 12.1278 9.21535 12.1165C8.79392 12.1318 8.37363 12.0641 7.97884 11.9174C7.58404 11.7707 7.22261 11.5479 6.9155 11.2619C6.6039 10.9425 6.36294 10.5624 6.208 10.1458C6.05305 9.72915 5.98751 9.28514 6.01556 8.84206ZM9.14263 8.48222C9.12203 8.88683 9.24771 9.28547 9.49715 9.6067C9.61251 9.74525 9.75871 9.85551 9.92429 9.92886C10.0899 10.0022 10.2704 10.0367 10.4516 10.0295C10.5036 10.0278 10.5553 10.0218 10.6062 10.0115C10.6511 10.0022 10.6967 9.99617 10.7425 9.99352C10.9984 9.92494 11.2364 9.80269 11.4403 9.63505C11.6442 9.46742 11.8092 9.25832 11.9243 9.02197C12.0598 8.78856 12.1608 8.53711 12.2242 8.27532C12.2821 8.06045 12.3186 7.84052 12.3333 7.61863C12.3394 7.45071 12.3424 7.17484 12.3424 6.79102V6.34123C11.8052 6.32479 11.2679 6.37313 10.7425 6.48516C10.276 6.56858 9.85629 6.81737 9.5618 7.18496C9.26731 7.55255 9.11829 8.01375 9.14263 8.48222ZM16.7785 14.2755C16.8068 14.2221 16.8437 14.1735 16.8876 14.1316C17.1525 13.9455 17.4477 13.8055 17.7602 13.7178C18.1995 13.6009 18.651 13.5345 19.1056 13.5199C19.221 13.5076 19.3376 13.5136 19.451 13.5379C19.9965 13.5858 20.3237 13.6758 20.4328 13.8077C20.4879 13.9066 20.5131 14.019 20.5055 14.1316V14.2575C20.485 14.7693 20.3679 15.2727 20.1601 15.7418C19.9578 16.2719 19.6269 16.7445 19.1965 17.1182C19.1516 17.1596 19.094 17.1849 19.0329 17.1901C19.0075 17.1899 18.9826 17.1837 18.9602 17.1722C18.8874 17.1362 18.8693 17.0702 18.9056 16.9742C19.2507 16.2907 19.478 15.5549 19.5783 14.7973C19.5868 14.696 19.5612 14.5948 19.5056 14.5094C19.3844 14.3655 19.045 14.2935 18.4875 14.2935C18.2814 14.2935 18.039 14.3055 17.7602 14.3295C17.4572 14.3655 17.1785 14.4015 16.9239 14.4374C16.8726 14.4435 16.8209 14.4307 16.7785 14.4015C16.7676 14.3934 16.7598 14.3818 16.7565 14.3687C16.7532 14.3556 16.7545 14.3417 16.7603 14.3295C16.7625 14.3104 16.7687 14.2921 16.7785 14.2755Z" fill="#243656"/>
</svg>