<svg width="15" height="17" viewBox="0 0 15 17" fill="none" xmlns="http://www.w3.org/2000/svg">
<g clip-path="url(#clip0)">
<path d="M12.196 9.03189C12.1765 6.88222 13.9723 5.8502 14.0535 5.79989C13.043 4.33858 11.4704 4.13839 10.9094 4.11484C9.57175 3.98102 8.29806 4.89313 7.62006 4.89313C6.94205 4.89313 5.89363 4.13411 4.78457 4.15553C3.32458 4.17694 1.98049 4.99376 1.22883 6.28485C-0.28639 8.88308 0.842175 12.7339 2.31732 14.8428C3.03973 15.8738 3.89969 17.0353 5.03042 16.9925C6.11999 16.9497 6.53157 16.2966 7.84642 16.2966C9.16127 16.2966 9.53168 16.9925 10.683 16.9722C11.8538 16.9497 12.5968 15.9187 13.3138 14.8846C14.1412 13.6877 14.4835 12.5294 14.503 12.4684C14.477 12.4576 12.2199 11.6023 12.196 9.03189Z" fill="#243656"/>
<path d="M10.0333 2.72008C10.6333 2.00174 11.0384 1.0029 10.9268 0.00732422C10.0624 0.0416189 9.01626 0.576869 8.39564 1.29521C7.84004 1.93008 7.35266 2.94707 7.48473 3.92237C8.4487 3.99624 9.43318 3.43736 10.0333 2.72008Z" fill="#243656"/>
</g>
<defs>
<clipPath id="clip0">
<rect width="14" height="17" fill="white" transform="translate(0.506836)"/>
</clipPath>
</defs>
</svg>