<svg width="21" height="14" viewBox="0 0 21 14" fill="none" xmlns="http://www.w3.org/2000/svg">
<path d="M1.23 7.64L6.23 13.64C6.32402 13.7529 6.44176 13.8437 6.57485 13.9059C6.70793 13.9681 6.85309 14.0002 7 14L18 14C18.7956 14 19.5587 13.6839 20.1213 13.1213C20.6839 12.5587 21 11.7956 21 11L21 3C21 2.20435 20.6839 1.44129 20.1213 0.878678C19.5587 0.316069 18.7957 -1.14638e-06 18 -1.21594e-06L7 -2.17759e-06C6.85309 -0.000240609 6.70793 0.0318925 6.57485 0.094114C6.44176 0.156336 6.32402 0.247116 6.23 0.359998L1.23 6.36C1.08033 6.53968 0.998376 6.76614 0.998376 7C0.998376 7.23385 1.08033 7.46031 1.23 7.64ZM7.47 2L18 2C18.2652 2 18.5196 2.10536 18.7071 2.29289C18.8946 2.48043 19 2.73478 19 3L19 11C19 11.2652 18.8946 11.5196 18.7071 11.7071C18.5196 11.8946 18.2652 12 18 12L7.47 12L3.3 7L7.47 2ZM10.29 9.71C10.383 9.80373 10.4936 9.87812 10.6154 9.92889C10.7373 9.97966 10.868 10.0058 11 10.0058C11.132 10.0058 11.2627 9.97966 11.3846 9.92889C11.5064 9.87812 11.617 9.80373 11.71 9.71L13 8.41L14.29 9.71C14.4783 9.8983 14.7337 10.0041 15 10.0041C15.2663 10.0041 15.5217 9.8983 15.71 9.71C15.8983 9.52169 16.0041 9.2663 16.0041 9C16.0041 8.86814 15.9781 8.73757 15.9277 8.61575C15.8772 8.49393 15.8032 8.38324 15.71 8.29L14.41 7L15.71 5.71C15.8037 5.61704 15.8781 5.50643 15.9289 5.38458C15.9797 5.26272 16.0058 5.13201 16.0058 5C16.0058 4.86799 15.9797 4.73728 15.9289 4.61542C15.8781 4.49356 15.8037 4.38296 15.71 4.29C15.617 4.19627 15.5064 4.12188 15.3846 4.07111C15.2627 4.02034 15.132 3.9942 15 3.9942C14.868 3.9942 14.7373 4.02034 14.6154 4.07111C14.4936 4.12188 14.383 4.19627 14.29 4.29L13 5.59L11.71 4.29C11.617 4.19627 11.5064 4.12188 11.3846 4.07111C11.2627 4.02034 11.132 3.9942 11 3.9942C10.868 3.9942 10.7373 4.02034 10.6154 4.07111C10.4936 4.12188 10.383 4.19627 10.29 4.29C10.1963 4.38296 10.1219 4.49356 10.0711 4.61542C10.0203 4.73728 9.9942 4.86799 9.9942 5C9.9942 5.13201 10.0203 5.26272 10.0711 5.38457C10.1219 5.50643 10.1963 5.61703 10.29 5.71L11.59 7L10.29 8.29C10.1963 8.38296 10.1219 8.49356 10.0711 8.61542C10.0203 8.73728 9.9942 8.86799 9.9942 9C9.9942 9.13201 10.0203 9.26272 10.0711 9.38457C10.1219 9.50643 10.1963 9.61703 10.29 9.71Z" fill="#243656"/>
</svg>