<svg width="24" height="24" viewBox="0 0 24 24" fill="none" xmlns="http://www.w3.org/2000/svg">
<g opacity="0.5">
<path d="M10 12C10 12.3956 10.1173 12.7822 10.3371 13.1111C10.5568 13.44 10.8692 13.6964 11.2346 13.8478C11.6001 13.9991 12.0022 14.0387 12.3902 13.9616C12.7781 13.8844 13.1345 13.6939 13.4142 13.4142C13.6939 13.1345 13.8844 12.7781 13.9616 12.3902C14.0387 12.0022 13.9991 11.6001 13.8478 11.2346C13.6964 10.8692 13.44 10.5568 13.1111 10.3371C12.7822 10.1173 12.3956 10 12 10C11.4696 10 10.9609 10.2107 10.5858 10.5858C10.2107 10.9609 10 11.4696 10 12ZM10 19C10 19.3956 10.1173 19.7822 10.3371 20.1111C10.5568 20.44 10.8692 20.6964 11.2346 20.8478C11.6001 20.9991 12.0022 21.0387 12.3902 20.9616C12.7781 20.8844 13.1345 20.6939 13.4142 20.4142C13.6939 20.1345 13.8844 19.7781 13.9616 19.3902C14.0387 19.0022 13.9991 18.6001 13.8478 18.2346C13.6964 17.8692 13.44 17.5568 13.1111 17.3371C12.7822 17.1173 12.3956 17 12 17C11.4696 17 10.9609 17.2107 10.5858 17.5858C10.2107 17.9609 10 18.4696 10 19ZM10 5C10 5.39556 10.1173 5.78224 10.3371 6.11114C10.5568 6.44004 10.8692 6.69638 11.2346 6.84776C11.6001 6.99913 12.0022 7.03874 12.3902 6.96157C12.7781 6.8844 13.1345 6.69392 13.4142 6.41421C13.6939 6.13451 13.8844 5.77814 13.9616 5.39018C14.0387 5.00222 13.9991 4.60008 13.8478 4.23463C13.6964 3.86918 13.44 3.55682 13.1111 3.33706C12.7822 3.1173 12.3956 3 12 3C11.4696 3 10.9609 3.21071 10.5858 3.58579C10.2107 3.96086 10 4.46957 10 5Z" fill="#243656"/>
</g>
</svg>