<svg width="16" height="17" viewBox="0 0 16 17" fill="none" xmlns="http://www.w3.org/2000/svg">
<path fill-rule="evenodd" clip-rule="evenodd" d="M10.738 5.51627C11.5697 6.02966 11.9855 6.28636 12.0584 6.73772C12.1313 7.18908 11.8414 7.53496 11.2616 8.22672C10.1842 9.51214 8.87142 10.6998 7.5065 11.4999C6.15967 12.2894 4.78832 12.6861 3.32033 12.9075C2.42683 13.0423 1.98007 13.1097 1.63876 12.8372C1.29745 12.5646 1.26228 12.0854 1.19192 11.1271L0.593971 2.98222C0.468528 1.27352 0.405806 0.419169 0.929087 0.101568C1.45237 -0.216033 2.18131 0.233962 3.63919 1.13395L10.738 5.51627ZM3.96731 7.63875C3.79873 7.63875 3.63394 7.68957 3.49377 7.78479C3.3536 7.88001 3.24435 8.01535 3.17983 8.17369C3.11532 8.33204 3.09844 8.50628 3.13133 8.67437C3.16422 8.84247 3.2454 8.99688 3.3646 9.11807C3.48381 9.23926 3.63568 9.32179 3.80103 9.35523C3.96637 9.38867 4.13775 9.37151 4.2935 9.30592C4.44925 9.24033 4.58237 9.12926 4.67603 8.98675C4.76968 8.84425 4.81967 8.67671 4.81967 8.50531C4.81967 8.27549 4.72987 8.05507 4.57002 7.89256C4.41017 7.73005 4.19337 7.63875 3.96731 7.63875ZM3.96731 3.75653C3.79873 3.75653 3.63394 3.80735 3.49377 3.90257C3.3536 3.99779 3.24435 4.13313 3.17983 4.29148C3.11532 4.44982 3.09844 4.62406 3.13133 4.79215C3.16422 4.96025 3.2454 5.11466 3.3646 5.23585C3.48381 5.35704 3.63568 5.43958 3.80103 5.47301C3.96637 5.50645 4.13775 5.48929 4.2935 5.4237C4.44925 5.35811 4.58237 5.24704 4.67603 5.10454C4.76968 4.96203 4.81967 4.79449 4.81967 4.6231C4.81967 4.39327 4.72987 4.17285 4.57002 4.01034C4.41017 3.84783 4.19337 3.75653 3.96731 3.75653ZM6.94205 5.48966C6.71599 5.48966 6.49919 5.58096 6.33934 5.74347C6.17949 5.90599 6.08969 6.1264 6.08969 6.35623V7.2228C6.08969 7.45262 6.17949 7.67304 6.33934 7.83555C6.49919 7.99806 6.71599 8.08936 6.94205 8.08936C7.16811 8.08936 7.38491 7.99806 7.54476 7.83555C7.70461 7.67304 7.79441 7.45262 7.79441 7.2228V6.35623C7.79441 6.1264 7.70461 5.90599 7.54476 5.74347C7.38491 5.58096 7.16811 5.48966 6.94205 5.48966ZM15.115 8.73657C15.3844 8.15911 15.0697 7.49388 14.4692 7.28054C13.8786 7.07068 13.2343 7.37826 12.9607 7.94218C11.9787 9.9664 10.4184 11.6673 8.47578 12.8099C6.54607 13.945 4.34587 14.4664 2.16557 14.3206C1.52877 14.278 0.926986 14.6839 0.804189 15.3102C0.677961 15.954 1.10508 16.5815 1.75894 16.6351C4.4624 16.857 7.20031 16.229 9.59436 14.8209C12.0071 13.4017 13.9327 11.2712 15.115 8.73657Z" fill="#243656"/>
</svg>