<svg width="25" height="25" viewBox="0 0 25 25" fill="none" xmlns="http://www.w3.org/2000/svg">
<path d="M10.1146 6.98944L11.4583 5.63527L11.4583 17.7082C11.4583 17.9845 11.5681 18.2494 11.7634 18.4448C11.9588 18.6401 12.2237 18.7499 12.5 18.7499C12.7763 18.7499 13.0412 18.6401 13.2366 18.4448C13.4319 18.2494 13.5417 17.9845 13.5417 17.7082L13.5417 5.63527L14.8854 6.98944C14.9823 7.08707 15.0975 7.16457 15.2244 7.21745C15.3513 7.27033 15.4875 7.29756 15.625 7.29756C15.7625 7.29756 15.8987 7.27033 16.0256 7.21745C16.1525 7.16457 16.2677 7.08707 16.3646 6.98944C16.4622 6.8926 16.5397 6.77739 16.5926 6.65046C16.6455 6.52352 16.6727 6.38737 16.6727 6.24986C16.6727 6.11234 16.6455 5.97619 16.5926 5.84925C16.5397 5.72232 16.4622 5.60711 16.3646 5.51027L13.2396 2.38527C13.1427 2.28764 13.0275 2.21014 12.9006 2.15726C12.7737 2.10438 12.6375 2.07715 12.5 2.07715C12.3625 2.07715 12.2263 2.10438 12.0994 2.15726C11.9725 2.21014 11.8573 2.28764 11.7604 2.38527L8.63542 5.51027C8.43927 5.70642 8.32907 5.97246 8.32907 6.24986C8.32907 6.52725 8.43927 6.79329 8.63542 6.98944C8.83157 7.18559 9.0976 7.29578 9.375 7.29578C9.6524 7.29578 9.91843 7.18559 10.1146 6.98944ZM18.75 9.37486L16.6667 9.37486C16.3904 9.37486 16.1254 9.4846 15.9301 9.67995C15.7347 9.8753 15.625 10.1403 15.625 10.4165C15.625 10.6928 15.7347 10.9577 15.9301 11.1531C16.1254 11.3484 16.3904 11.4582 16.6667 11.4582H18.75C19.0263 11.4582 19.2912 11.5679 19.4866 11.7633C19.6819 11.9586 19.7917 12.2236 19.7917 12.4999L19.7917 19.7915C19.7917 20.0678 19.6819 20.3327 19.4866 20.5281C19.2912 20.7234 19.0263 20.8332 18.75 20.8332L6.25 20.8332C5.97373 20.8332 5.70878 20.7234 5.51343 20.5281C5.31808 20.3327 5.20833 20.0678 5.20833 19.7915L5.20833 12.4999C5.20833 12.2236 5.31808 11.9586 5.51343 11.7633C5.70878 11.5679 5.97373 11.4582 6.25 11.4582H8.33333C8.6096 11.4582 8.87455 11.3484 9.0699 11.1531C9.26525 10.9577 9.375 10.6928 9.375 10.4165C9.375 10.1403 9.26525 9.8753 9.0699 9.67995C8.87455 9.4846 8.6096 9.37486 8.33333 9.37486H6.25C5.4212 9.37486 4.62634 9.7041 4.04029 10.2901C3.45424 10.8762 3.125 11.6711 3.125 12.4999L3.125 19.7915C3.125 20.6203 3.45424 21.4152 4.04029 22.0012C4.62634 22.5873 5.4212 22.9165 6.25 22.9165L18.75 22.9165C19.5788 22.9165 20.3737 22.5873 20.9597 22.0012C21.5458 21.4152 21.875 20.6203 21.875 19.7915L21.875 12.4999C21.875 11.6711 21.5458 10.8762 20.9597 10.2901C20.3737 9.7041 19.5788 9.37486 18.75 9.37486Z" fill="white"/>
</svg>