<svg width="35" height="12" viewBox="0 0 35 12" fill="none" xmlns="http://www.w3.org/2000/svg">
<g clip-path="url(#clip0)">
<path d="M15.1976 10.0076H12.5244L14.1964 0.0249023H16.8695L15.1976 10.0076Z" fill="#243656"/>
<path d="M24.889 0.268754C24.3617 0.0667676 23.5254 -0.15625 22.4914 -0.15625C19.8515 -0.15625 17.9925 1.20303 17.9811 3.14638C17.9592 4.58019 19.3121 5.37656 20.3239 5.85463C21.3582 6.34315 21.7097 6.66201 21.7097 7.09746C21.6992 7.76623 20.874 8.0745 20.1044 8.0745C19.0371 8.0745 18.4652 7.91557 17.5962 7.5435L17.2442 7.384L16.8701 9.6249C17.4971 9.90071 18.6522 10.1455 19.8515 10.1562C22.6564 10.1562 24.4825 8.81794 24.5041 6.74699C24.5148 5.61058 23.8004 4.73983 22.2602 4.02829C21.3253 3.57153 20.7527 3.26354 20.7527 2.79619C20.7636 2.37133 21.237 1.93616 22.2924 1.93616C23.1615 1.91485 23.8 2.11655 24.2837 2.3184L24.5255 2.4244L24.889 0.268754Z" fill="#243656"/>
<path d="M28.4425 6.47109C28.6627 5.8976 29.5098 3.67801 29.5098 3.67801C29.4987 3.69933 29.7295 3.09393 29.8615 2.72228L30.0483 3.58245C30.0483 3.58245 30.5546 5.97198 30.6645 6.47109C30.2467 6.47109 28.9705 6.47109 28.4425 6.47109ZM31.7423 0.0249023H29.6746C29.0369 0.0249023 28.5525 0.205292 28.2774 0.853172L24.3066 10.0075H27.1116C27.1116 10.0075 27.5733 8.77537 27.6726 8.51001C27.9803 8.51001 30.7089 8.51001 31.1048 8.51001C31.1815 8.86048 31.4238 10.0075 31.4238 10.0075H33.8989L31.7423 0.0249023Z" fill="#243656"/>
<path d="M10.2933 0.0249023L7.67533 6.83216L7.38926 5.45157C6.90525 3.85854 5.38731 2.12776 3.69336 1.26717L6.09131 9.99703H8.91817L13.12 0.0249023H10.2933Z" fill="#243656"/>
<path opacity="0.5" d="M5.24338 0.0249023H0.942438L0.898438 0.226606C4.25344 1.05502 6.47539 3.05187 7.38829 5.45199L6.45332 0.86404C6.29939 0.226465 5.82635 0.0459337 5.24338 0.0249023Z" fill="#243656"/>
</g>
<defs>
<clipPath id="clip0">
<rect width="34" height="12" fill="white" transform="translate(0.414062)"/>
</clipPath>
</defs>
</svg>